<svg xmlns="http://www.w3.org/2000/svg" width="119" height="22" viewBox="0 0 119 22">
    <g fill="#FFF" fill-rule="evenodd">
        <path d="M89.58 16.821c-.683 0-1.237-.146-1.626-.428-.39-.278-.606-.707-.604-1.217-.004-.525.187-.976.68-1.256.488-.278 1.246-.411 2.412-.413h1.21v1.306c0 .644-.165 1.154-.518 1.5-.354.343-.877.508-1.55.508h-.004zm-.357-10.255c-1.692 0-2.803.46-3.58 1.075v1.973c.79-.379 1.78-.691 3.128-.691.913.001 1.708.13 2.177.505.472.377.682.988.681 1.866v.284h-1.187c-4.462.018-5.934 1.612-5.943 3.712.002 2.163 1.909 3.754 4.763 3.759h.612c2.66-.006 4.486-1.737 4.492-4.258v-2.816c0-4.292-2.465-5.39-5.143-5.409zM38.54 6.564c-3.735.005-5.364 2.583-5.374 5.115v7.16h2.783v-6.953c0-.895.231-1.612.646-2.11.414-.496 1.006-.761 1.695-.761h.005c.802 0 1.46.235 1.91.752.448.52.676 1.297.676 2.344l.004 6.729h2.78v-6.998c-.007-3.41-2.307-5.272-5.125-5.278zm17.31 5.56l.008-.132.02-.41c.069-1.458 1.139-2.727 2.683-2.727.72 0 1.323.158 1.756.486.433.327.679.835.677 1.475.012.467-.211.846-.77 1.035-.554.196-1.443.272-2.886.273H55.85zm2.982-5.56c-3.417.005-5.841 2.49-5.85 6.524 0 3.673 2.905 5.958 5.873 5.96h.006c1.762 0 2.86-.277 3.497-.802v-2.043c-.91.452-1.985.595-2.938.595h-.013c-1.823 0-3.289-1.01-3.528-2.623l-.02-.143h2.136c2.008 0 3.426-.185 4.317-.634.888-.449 1.277-1.124 1.281-2.217 0-2.852-2.282-4.615-4.76-4.617zm42.64 0c-3.737.005-5.365 2.583-5.375 5.115l.017 7.16h2.767v-6.952c0-.896.231-1.613.645-2.11.413-.497 1.008-.762 1.696-.762h.004c.8 0 1.463.235 1.91.754.45.519.679 1.295.679 2.342l.007 6.729h2.776V11.84c-.007-3.41-2.307-5.271-5.126-5.277zm-32.03-.007c-3.14.005-4.365 2.252-4.377 4.662v7.62h2.804v-7.073c.002-.948.188-1.632.573-2.085.386-.454.956-.651 1.654-.651h.004c.284 0 .536.024.761.063V6.851c-.353-.178-.814-.294-1.418-.294zM28.194 18.84h2.8V3.488h-2.8V18.84zm20.39-15.352h-2.769l.01 11.077c.014 2.811 1.417 4.468 4.445 4.484 1.286-.002 2.059-.423 2.377-1.098v-1.746c-.499.222-1.176.323-2.014.323-.63 0-1.153-.161-1.512-.548-.358-.384-.537-.967-.537-1.78V9.016h2.428c1.185-.003 1.682-.765 1.685-1.33V6.565h-4.113V3.488zm29.409 13.174c-.907 0-1.731-.27-2.27-.943-.54-.674-.797-1.73-.797-3.152.004-1.952 1.166-3.55 2.764-3.552h.003c.926 0 1.69.258 2.202.919.517.655.776 1.677.776 3.178 0 2.014-1.096 3.547-2.673 3.55h-.005zM74.91 3.488h-2.762V13c0 4.043 2.407 6.049 5.54 6.049 3.564 0 5.815-2.836 5.82-6.458-.005-3.554-2.278-6.025-5.244-6.027-1.568 0-2.549.94-3.137 1.809l-.226.33.009-5.215zM111.576 3.488h-2.83l.001 15.196 2.816.008v-6.166l.226.3c1.342 1.776 2.703 3.57 4.263 5.16.49.487 1.259.794 1.9.794h.013c.774-.002 1.213-.195 1.52-.563-.775-.926-3.987-4.666-4.938-5.825l-.065-.078.064-.077c1.226-1.536 3.877-4.525 4.873-5.423h-1.545c-.973.003-1.645.106-2.349.754-1.397 1.317-2.555 2.863-3.736 4.393l-.226.293.013-8.766zM16.806 15.879L5.12 17.998V6.162l11.687-2.119V15.88zM2.926 0C1.307 0 0 1.322 0 2.953V22h19c1.617 0 2.928-1.322 2.928-2.952L21.93 0H2.925z"/>
    </g>
</svg>
