<svg xmlns="http://www.w3.org/2000/svg" xmlns:xlink="http://www.w3.org/1999/xlink" viewBox="0 0 1082.6 904.8"><defs><style>.cls-1,.cls-13,.cls-14,.cls-15,.cls-22,.cls-25,.cls-26,.cls-30,.cls-31,.cls-32,.cls-35,.cls-37,.cls-38,.cls-41{fill:none;}.cls-2{fill:#d3d3d3;}.cls-3{fill:#1d1f3e;}.cls-4{fill:#262e61;}.cls-20,.cls-5{fill:#fff;}.cls-6{fill:#3d4c9b;}.cls-21,.cls-7{fill:#f9c169;}.cls-10,.cls-12,.cls-8{fill:#f8c06a;}.cls-12,.cls-14,.cls-22,.cls-30,.cls-41,.cls-8{stroke:#f49418;}.cls-12,.cls-13,.cls-14,.cls-15,.cls-22,.cls-25,.cls-26,.cls-30,.cls-31,.cls-32,.cls-37,.cls-38,.cls-41,.cls-8{stroke-linecap:round;}.cls-12,.cls-13,.cls-14,.cls-21,.cls-22,.cls-25,.cls-26,.cls-30,.cls-31,.cls-32,.cls-35,.cls-37,.cls-41,.cls-8{stroke-miterlimit:10;}.cls-8{stroke-width:3.28px;}.cls-9{fill:#272e61;}.cls-11{fill:#f49418;}.cls-12{stroke-width:3.99px;}.cls-13,.cls-26{stroke:#262e61;}.cls-13{stroke-width:5.09px;}.cls-14{stroke-width:3.92px;}.cls-15{stroke:#fff;stroke-width:0;}.cls-15,.cls-38{stroke-linejoin:round;}.cls-16{clip-path:url(#clip-path);}.cls-17{fill:#5b92ce;}.cls-18{fill:url(#linear-gradient);}.cls-19{fill:url(#linear-gradient-2);}.cls-20,.cls-27{fill-rule:evenodd;}.cls-21{stroke:#f9c169;stroke-width:3px;}.cls-22{stroke-width:1.84px;}.cls-23{fill:#009f45;}.cls-24{fill:#3f63ac;}.cls-25{stroke:#5b90cc;stroke-width:1.3px;}.cls-26{stroke-width:1.44px;}.cls-27{fill:#1e3d8f;}.cls-28{fill:#1e110d;opacity:0.13;}.cls-29{fill:#fed593;}.cls-30,.cls-37{stroke-width:4.04px;}.cls-31,.cls-37{stroke:#272e61;}.cls-31{stroke-width:6.63px;}.cls-32{stroke:#1d1f3e;stroke-width:5.06px;}.cls-33{fill:#22a053;}.cls-34{clip-path:url(#clip-path-2);}.cls-35{stroke:#5bb570;stroke-width:17.73px;}.cls-36{clip-path:url(#clip-path-3);}.cls-38{stroke:#56b470;stroke-width:5px;}.cls-39{fill:#9acea8;}.cls-40{fill:#56b470;}.cls-41{stroke-width:3.34px;}.cls-42{fill:#f8be41;}</style><clipPath id="clip-path"><polygon class="cls-1" points="707.3 571.2 707.3 905.7 825.7 905.7 813 571.2 707.3 571.2"/></clipPath><linearGradient id="linear-gradient" x1="-661.35" y1="27.37" x2="-614.71" y2="-2.81" gradientTransform="translate(1264.8 472.2) rotate(3.6)" gradientUnits="userSpaceOnUse"><stop offset="0" stop-color="#44af64"/><stop offset="1" stop-color="#4986c6"/></linearGradient><linearGradient id="linear-gradient-2" x1="-662" y1="27.79" x2="-613.84" y2="-3.37" gradientTransform="matrix(0.99, 0.17, -0.17, 0.99, 1258.26, 541.34)" xlink:href="#linear-gradient"/><clipPath id="clip-path-2"><path class="cls-1" d="M431.7,385.6l-77.1,37.8c-9.8,4.8-16,14.2-16.1,24.5l-4.9,459.5H514.9l6.4-445.9-37.7-35Z"/></clipPath><clipPath id="clip-path-3"><path class="cls-1" d="M293.3,392.1l10,27.3a44.2,44.2,0,0,1,2.4,19.1L263.5,905.6l-70,.9c11.5-143.4,26.1-281.3,31.6-362.8l12.2-75.5Z"/></clipPath></defs><title>BENEFICIOS</title><g id="Capa_1" data-name="Capa 1"><path class="cls-2" d="M324.5,187.7H899.8a0,0,0,0,1,0,0V763A141.7,141.7,0,0,1,758.1,904.8H182.8a0,0,0,0,1,0,0V329.5A141.7,141.7,0,0,1,324.5,187.7Z"/><rect class="cls-3" x="998.2" y="372.7" width="54" height="106.03" rx="8.3" transform="translate(1576.1 1389.4) rotate(-142.3)"/><rect class="cls-4" x="1003.6" y="376.9" width="54" height="106.03" rx="8.3" transform="translate(1583.3 1400.3) rotate(-142.3)"/><ellipse class="cls-5" cx="1057.4" cy="407.2" rx="4.4" ry="3.9" transform="translate(88.6 994.8) rotate(-52.3)"/><rect class="cls-6" x="1036.4" y="392.8" width="16.1" height="8.83" rx="3.3" transform="translate(1628 1350.2) rotate(-142.3)"/><path class="cls-7" d="M1037.4,462.4c.4-2.4.9-4.8,1.3-7.1l.5-3.6a11,11,0,0,0,.2-1.8l.2-1.7c0-1.2.2-2.4.2-3.5v-5.1l-.2-1.7a9.7,9.7,0,0,0-.1-1.7l-.3-1.6a27.2,27.2,0,0,0-4.4-11.4,23.3,23.3,0,0,0-4.3-4.6,45.4,45.4,0,0,0-5.8-4.1,5.5,5.5,0,0,1-1.6-7.5,5.3,5.3,0,0,1,6.9-2h.1c2.3,1.2,4.8,2.6,7.3,4.2a35.4,35.4,0,0,1,7,5.9,40,40,0,0,1,8.7,16.2l.6,2.2c.2.7.3,1.4.5,2.2l.4,2.1.2,1.1V440l.5,4.3c.1,1.4.1,2.8.1,4.2v8.4c-.1,2.7-.4,5.5-.6,8.2a8.9,8.9,0,1,1-17.7-1.3c0-.3.1-.6.1-.9Z"/><path class="cls-7" d="M1027.5,471a67,67,0,0,0,1.5-15.2,28.6,28.6,0,0,0-3.1-13.2,14.8,14.8,0,0,0-3.8-4.4,12.3,12.3,0,0,0-2.5-1.4,9.2,9.2,0,0,0-2.8-.9c-4-.9-8.8.1-13.1,2.3h-.1a5.2,5.2,0,0,1-7.2-2.3,5.4,5.4,0,0,1,1.8-7,36.9,36.9,0,0,1,9.4-4.4,31.8,31.8,0,0,1,10.8-1.1,36.9,36.9,0,0,1,5.6,1.1,35.9,35.9,0,0,1,5.3,2.4,27.3,27.3,0,0,1,8.4,7.8,38.3,38.3,0,0,1,5,9.6,62.5,62.5,0,0,1,2.3,10,65,65,0,0,1,.5,9.8c0,3.3-.2,6.4-.5,9.6a8.9,8.9,0,0,1-17.7-1.7c.1-.3.1-.6.2-.9Z"/><path class="cls-7" d="M1020.6,482.1a67.5,67.5,0,0,0,1.6-15.3,29.8,29.8,0,0,0-3.2-13.1,14.8,14.8,0,0,0-3.8-4.4,12.3,12.3,0,0,0-2.5-1.4,9.2,9.2,0,0,0-2.8-.9c-4-.9-8.7.1-13,2.3h-.1a5.4,5.4,0,0,1-5.5-9.3,35.2,35.2,0,0,1,9.4-4.4,32,32,0,0,1,10.8-1.1,34.7,34.7,0,0,1,5.6,1.1,31.8,31.8,0,0,1,5.3,2.4,26.2,26.2,0,0,1,8.4,7.8,38.3,38.3,0,0,1,5,9.6,60.1,60.1,0,0,1,2.3,10,81.8,81.8,0,0,1,.6,9.8c0,3.3-.3,6.4-.6,9.6a8.8,8.8,0,1,1-17.6-1.7,2.8,2.8,0,0,1,.1-.9Z"/><path class="cls-7" d="M1014.7,492.9a123.2,123.2,0,0,0-.1-13.6,52.4,52.4,0,0,0-2.4-12.4c-1.2-3.8-3.2-6.8-5.5-8.3a6.6,6.6,0,0,0-1.9-.9,7.8,7.8,0,0,0-2.2-.4,12.1,12.1,0,0,0-5.2.7h-.3a5.4,5.4,0,0,1-3.7-10.1,25.9,25.9,0,0,1,9-2.3,21.9,21.9,0,0,1,5.1.3,18.2,18.2,0,0,1,5,1.6,23,23,0,0,1,7.9,6.1,30.3,30.3,0,0,1,4.9,7.7,63.3,63.3,0,0,1,5.1,15.8,138.7,138.7,0,0,1,2,15.6h0a8.9,8.9,0,0,1-17.7,1.3Z"/><path class="cls-7" d="M1040.9,532.4s19.9-49.6,12.8-83.4-56.3,10.1-52.6,40c1.8,15.4,5.1,18.6,2.7,25.7Z"/><path class="cls-8" d="M1020.9,452.9s-9.4-15.5-28.6-4"/><path class="cls-8" d="M1031.2,444.1s-9.8-22.7-33.6-7.3"/><path class="cls-4" d="M842.3,589.3c-.2-.1-.1-.1-.1-.1h0l.2.2.5.5,1,1.1,2.4,2.3c1.6,1.6,3.3,3.1,5.1,4.7,3.5,3,7.2,5.9,10.9,8.7a130.9,130.9,0,0,0,22.6,13.5c7.5,3.4,14.7,5.5,20.9,6s11.2,0,16.2-2.1a32.6,32.6,0,0,0,7.5-4.4l.5-.4.6-.4,1.1-.9,2.2-2a23.4,23.4,0,0,0,2.3-2.2l2.3-2.3a172.1,172.1,0,0,0,17.9-22.8,308.4,308.4,0,0,0,16.1-26.9c2.5-4.7,4.9-9.5,7.2-14.2,1.2-2.4,2.3-4.8,3.4-7.2s1.1-2.4,1.6-3.6l1.4-3.3.3-.7a32,32,0,0,1,59,24.8l-1,2.4-.9,2.2-1.9,4.2c-1.2,2.8-2.4,5.6-3.7,8.4-2.5,5.6-5.2,11-7.9,16.5-5.4,11-11.2,21.9-17.7,32.7a266.7,266.7,0,0,1-22.5,32.4l-3.4,4.1-3.7,4-3.9,4-2,2-1.1.9-1.1,1.1a112.1,112.1,0,0,1-20.8,14.6,107.4,107.4,0,0,1-12,5.4,113.8,113.8,0,0,1-12.6,3.8,107.3,107.3,0,0,1-25.5,2.9q-6.3,0-12.3-.6t-11.7-1.8a149.6,149.6,0,0,1-21.9-5.9,214.9,214.9,0,0,1-38.1-17.8c-5.9-3.4-11.6-7-17.2-10.9-2.8-1.9-5.5-3.9-8.3-6l-4.2-3.2-2.1-1.7-1.2-1-.6-.5-.3-.3-.5-.4a41.3,41.3,0,0,1,57-59.9Z"/><rect class="cls-4" x="999.4" y="502" width="41.5" height="64.26" transform="translate(160.3 1300.1) rotate(-69.3)"/><rect class="cls-6" x="1019.1" y="494.3" width="7.9" height="64.26" transform="translate(169.4 1297.8) rotate(-69.3)"/><rect class="cls-6" x="1013.3" y="509.7" width="7.9" height="64.26" transform="translate(151.2 1302.4) rotate(-69.3)"/><path class="cls-4" d="M777.9,340.9c-9.6-40.1-52.4-64.3-95.9-54.2s-71.6,51-62.2,91.4l9.4,40.5c9.4,40.4,52.3,64.9,96.1,54.8,41.4-9.6,68.5-46.8,63.3-85.1Z"/><path class="cls-9" d="M795.6,389.8c-3.7-23.8-1.8-13-20.8-58.6-1.7-4.2.5,10.8-4,14.5s-7.5,4.8-5.4,8.8l.5.7L794,402.4c1.8,2.8.6,4.6,3.5,2.8S796,392.8,795.6,389.8Z"/><path class="cls-10" d="M639,415.8a60.5,60.5,0,0,0,2.9,6.3c.5,1,6.6,1.1,7.1,2.1,10.6,47.3,71.6,49.3,57.7,122.9-1.2,6.4-6,15.2-12.2,24.1H815.3c-6.1-8.9-10.4-17.9-11.9-24.1-9.9-40.5-2-78.1,1.6-117,2.5-26.5-12.2-57.2-28.5-78.4-7-9-11.3-15.4-17.9-23.4-24.5-29.6-52.5-26.4-87.7-12.6-16.9,6.6-37.5,78.5-33.5,95.9h-.5Z"/><path class="cls-9" d="M646.2,329.7s51.6,38.9,9.6,92.5c0,0-18.2,13.4-27.2-11.1,9-33.5,8.9-51.6,8.9-51.6Z"/><path class="cls-10" d="M670.2,423.3a18.4,18.4,0,0,0-22-14.3c-10.1,2.3-16.9,12.4-14.7,22.5s13.2,15.8,21.1,14.4l18.4-4.5S670.5,424.7,670.2,423.3Z"/><circle class="cls-11" cx="651.9" cy="427.4" r="5.9"/><path class="cls-4" d="M670.2,423.3c1.3-4.1,2-23.3,3.4-51s-19.4-37.7-23.7-34.2-11.3,47.1-12.5,51.4-11.7,8.2-6.4,11.9,24.4,4.1,24.4,4.3C659.4,421.5,669.8,424.6,670.2,423.3Z"/><path class="cls-4" d="M651.9,334.7s19,4.8,34.4-5.9,35.6-24.8,57-13.4c32.2,17.2,42.3,10.7,42.3,10.7s-13.9-4.8-25.9-31.3c-9.4-20.8-61.9-28.9-97.2-14-26.6,11.2-29.2,37.5-29.2,37.5Z"/><path class="cls-4" d="M641.7,334.4s23.2,8.5,37.8,8.8,22.6-7.5,22.6-7.5-17.2,2.2-24.4-4.8c0,0,18.6,4.9,33.8-4.7,0,0-23.9,4.7-27.9-6.1S641.7,334.4,641.7,334.4Z"/><path class="cls-12" d="M758.5,353.8a14.4,14.4,0,0,0-10.7,2.1c-2.2,1.6-6.5,6.8-7.6,11.1s-.1,12.1,10,24.6a89.9,89.9,0,0,1,9.1,13c2.2,3.9,4.3,10.2-3.1,13.7s-13.7-.1-15.5-3.8"/><path class="cls-13" d="M694.2,371.9c4-11.5,20-15.7,27.7-7.8"/><rect class="cls-4" x="712.9" y="383.2" width="9.3" height="13.13" rx="3.5" transform="translate(-70.9 177.4) rotate(-13.4)"/><rect class="cls-4" x="753.8" y="374.7" width="9.3" height="13.13" rx="3.5" transform="translate(-67.8 186.7) rotate(-13.4)"/><path class="cls-13" d="M743.3,360.5c6.9-9.7,18.1-7.6,23.5-2.5"/><path class="cls-14" d="M750.2,482.3s37,12.7,38.9-24"/><path class="cls-9" d="M768.4,432.6c-9.7,3.2-50-3.4-57.8-9.1,0,0,3.2,26,24.5,29.6S768.4,432.6,768.4,432.6Z"/><path class="cls-5" d="M714.8,425.6c3.1,7.7,9.4,17.2,21.6,19.3s21.8-5.2,27.4-11.6C751.5,434.1,726.1,430,714.8,425.6Z"/><path class="cls-5" d="M735.1,453.1a26.2,26.2,0,0,0,17.2-3.1,184.9,184.9,0,0,1-32.1-5.1A25.7,25.7,0,0,0,735.1,453.1Z"/><path class="cls-5" d="M819.8,890.2l-12.2-319H710.1V904.8h47A141.7,141.7,0,0,0,819.8,890.2Z"/><polyline class="cls-15" points="710.1 904.8 710.1 905.7 820.4 905.7 819.8 890.2"/><g class="cls-16"><rect class="cls-17" x="681.6" y="585.4" width="151.2" height="1.88"/><rect class="cls-17" x="681.6" y="600.2" width="151.2" height="1.88"/><rect class="cls-17" x="681.6" y="615" width="151.2" height="1.88"/><rect class="cls-17" x="681.6" y="629.7" width="151.2" height="1.88"/><rect class="cls-17" x="681.6" y="644.5" width="151.2" height="1.88"/><rect class="cls-17" x="681.6" y="659.3" width="151.2" height="1.88"/><rect class="cls-17" x="681.6" y="674" width="151.2" height="1.88"/><rect class="cls-17" x="681.6" y="688.8" width="151.2" height="1.88"/><rect class="cls-17" x="681.6" y="703.5" width="151.2" height="1.88"/><rect class="cls-17" x="681.6" y="718.3" width="151.2" height="1.88"/><rect class="cls-17" x="681.6" y="733.1" width="151.2" height="1.88"/><rect class="cls-17" x="681.6" y="747.8" width="151.2" height="1.88"/><rect class="cls-17" x="681.6" y="585.4" width="151.2" height="1.88"/><rect class="cls-17" x="681.6" y="600.1" width="151.2" height="1.88"/><rect class="cls-17" x="681.6" y="614.8" width="151.2" height="1.88"/><rect class="cls-17" x="681.6" y="629.5" width="151.2" height="1.88"/><rect class="cls-17" x="681.6" y="644.2" width="151.2" height="1.88"/><rect class="cls-17" x="681.6" y="658.9" width="151.2" height="1.88"/><rect class="cls-17" x="681.6" y="673.6" width="151.2" height="1.88"/><rect class="cls-17" x="681.6" y="688.3" width="151.2" height="1.88"/><rect class="cls-17" x="681.6" y="703" width="151.2" height="1.88"/><rect class="cls-17" x="681.6" y="717.7" width="151.2" height="1.88"/><rect class="cls-17" x="681.6" y="732.4" width="151.2" height="1.88"/><rect class="cls-17" x="681.6" y="747.1" width="151.2" height="1.88"/><rect class="cls-17" x="681.6" y="761.8" width="151.2" height="1.88"/><rect class="cls-17" x="703" y="551.4" width="106.8" height="26.33"/><rect class="cls-17" x="701.1" y="776.5" width="151.2" height="1.88"/><rect class="cls-17" x="701.1" y="791.2" width="151.2" height="1.88"/><rect class="cls-17" x="701.1" y="805.9" width="151.2" height="1.88"/><rect class="cls-17" x="701.1" y="820.6" width="151.2" height="1.88"/><rect class="cls-17" x="701.1" y="835.3" width="151.2" height="1.88"/><rect class="cls-17" x="701.1" y="850" width="151.2" height="1.88"/><rect class="cls-17" x="701.1" y="864.7" width="151.2" height="1.88"/><rect class="cls-17" x="701.1" y="879.4" width="122.6" height="1.88"/><rect class="cls-17" x="701.1" y="894.1" width="92" height="1.88"/><rect class="cls-17" x="681.6" y="762.6" width="151.2" height="1.88"/></g><path class="cls-10" d="M507.6,625.1c2.4-9.9,4.9-19.8,7.8-29.7s6.1-19.8,9.7-29.6,7.8-19.6,12.3-28.8,9-18,13.3-26.5h.1a22,22,0,0,1,40.6,16.3c-2.8,9.4-5.5,18.5-7.7,27.4s-4.1,17.4-5.6,26.2-2.5,17.6-3.3,26.7-1.3,18.2-1.7,27.4a33.2,33.2,0,0,1-66.4-3,31,31,0,0,1,.9-6.1Z"/><path class="cls-7" d="M588,522.2l.9-3.8a10.5,10.5,0,0,0-.9-7,19.5,19.5,0,0,0,2.9-2.3l1.1-1,.8-1c1.1-1.3,14.3-14.4,13.5-15-4.6-3.4-8.2-6.6-11.3-11.5-1.5-2.4-2.3-5.2-3.8-7.6s-2.3-6.5-5.9-7.2c-.4,0-5.5,5.7-5.7,5.5a1.8,1.8,0,0,1-.3-2,39.2,39.2,0,0,1,6.3-13.6c.9-1.3,1.8-2.7,2.8-4l2.8-3.7,1.1-1.4a11.9,11.9,0,0,0-2.2-16.7,12.1,12.1,0,0,0-13.1-1l-5.6,3.3a60.6,60.6,0,0,0-5.3,3.5,77.5,77.5,0,0,0-10.3,8.4,59.1,59.1,0,0,0-9.6,11.8l-1,1.9c-.4.7-.8,1.6-1.2,2.5l-.2.6-.2.3-.3.6-.2.3-.4,1.7c-.3.7-1.2,6.5-1.4,8.1s-.2,2.9-.3,4.2-.3,4.9-.4,7.2-.2,4.4-.2,6.6a99.2,99.2,0,0,0,.4,12.3c1.3,11.1,10.9,19.6,10.9,19.6a10,10,0,0,1-.4,1.1l35.2,6.9C587.3,525.6,587.5,524.7,588,522.2Z"/><path class="cls-7" d="M591.2,499.4a4.9,4.9,0,0,0-2.6.4c-.4.2-.5.4-.2.4a8.9,8.9,0,0,0,3.2-1.7,87.2,87.2,0,0,0,9.1-8.6c3.1-3.3,6.4-7,9.9-10.6,1.8-1.8,3.7-3.7,5.8-5.5a49.6,49.6,0,0,1,7.3-5.5,8.9,8.9,0,0,1,12.1,3.2,8.8,8.8,0,0,1-1.5,10.8l-.8.7a38.7,38.7,0,0,0-3.4,4c-1.2,1.6-2.4,3.3-3.6,5.2-2.4,3.7-4.8,7.7-7.4,11.9-1.3,2.1-2.7,4.2-4.2,6.4a71.8,71.8,0,0,1-5.2,6.7,33.6,33.6,0,0,1-8,7,22.4,22.4,0,0,1-16.5,3.5,14.5,14.5,0,0,1,6-28.3Z"/><path class="cls-7" d="M550.6,442.3a118.7,118.7,0,0,1,11.2-15.7c1-1.3,2.2-2.5,3.3-3.8s2.3-2.4,3.6-3.5a61.2,61.2,0,0,1,8.3-6.5,41.5,41.5,0,0,1,10-4.6,35.7,35.7,0,0,1,11.2-1.6,40.6,40.6,0,0,1,10.7,1.8,86.1,86.1,0,0,1,9.1,3.7h0a6.4,6.4,0,0,1,3,8.6,6.3,6.3,0,0,1-7.9,3.3c-5.4-1.9-10.2-3-14.6-2.5a22,22,0,0,0-11.8,5.2,36.5,36.5,0,0,0-5.2,5.2l-2.4,2.9-2.2,3.2a108.8,108.8,0,0,0-7.8,14.3,10.6,10.6,0,0,1-14,5.1,10.5,10.5,0,0,1-5.1-14,3.1,3.1,0,0,1,.5-1Z"/><rect class="cls-7" x="572.7" y="427.1" width="23.7" height="42.95" rx="8.8" transform="matrix(1, -0.04, 0.04, 1, -18.57, 25.29)"/><rect class="cls-7" x="565.3" y="434.8" width="23.7" height="42.95" rx="8.8" transform="translate(-18.9 25) rotate(-2.4)"/><path class="cls-11" d="M569.6,475.3a12.1,12.1,0,0,1-2.7-7.3v-9.7a1.8,1.8,0,0,1,1.9-1.9,1.9,1.9,0,0,1,2,1.9V468a7.9,7.9,0,0,0,7.8,7.7,7.8,7.8,0,0,0,7.7-7.8l-.6-27.8a2,2,0,0,1,3.9-.1l.6,27.8a11.6,11.6,0,0,1-19.8,8.4Z"/><rect class="cls-7" x="556.3" y="444.8" width="23.7" height="42.95" rx="8.8" transform="translate(-19.3 24.6) rotate(-2.4)"/><path class="cls-11" d="M560.6,485.3A11.2,11.2,0,0,1,558,478v-9.6a2,2,0,0,1,3.9-.1V478a7.8,7.8,0,1,0,15.5-.1l-.7-27.8a2.1,2.1,0,0,1,2-2,2,2,0,0,1,1.9,2l.7,27.8a11.7,11.7,0,0,1-11.6,11.7,12.1,12.1,0,0,1-8.3-3.3Z"/><path class="cls-4" d="M718.5,645.6l-.3.6-.2.4-.4.7-.8,1.4-1.4,2.6-2.8,4.9c-1.9,3.2-3.8,6.3-5.8,9.4-4,6.1-8.1,12.2-12.5,18.1a254.6,254.6,0,0,1-30.4,34.6c-3,2.7-6.1,5.4-9.4,8.1s-6.7,5.2-10.3,7.7-7.6,4.9-11.7,7.2a123.1,123.1,0,0,1-13.2,6.1,111,111,0,0,1-14.8,4.5,108.9,108.9,0,0,1-16.2,2.2,90.4,90.4,0,0,1-32.5-4.5,115.7,115.7,0,0,1-14.3-6l-3.2-1.8-.9-.5-1.3-.8-2.5-1.5a66.6,66.6,0,0,1-21.5-23.9,84.7,84.7,0,0,1-6.5-15.9,114.7,114.7,0,0,1-4.3-27.2,199.9,199.9,0,0,1,.4-23.4c.6-7.5,1.4-14.6,2.5-21.6s2.4-13.9,3.8-20.7,2.9-13.4,4.6-20.1l2.7-9.9,1.4-5,.7-2.6.9-2.8a34.9,34.9,0,0,1,67,19.9l-.3,1-1,3.6-1.2,4.1c-.7,2.8-1.4,5.6-2,8.4-1.3,5.7-2.6,11.3-3.6,16.9s-1.8,11.2-2.4,16.7-1,10.9-1.2,16.1a110.9,110.9,0,0,0,.5,14.4,39.7,39.7,0,0,0,2.2,10c.4,1.1.8,1.6.9,1.6s-.2-.8-1-1.7a10.7,10.7,0,0,0-1.6-1.4l-.5-.4H574l1,.4a29.6,29.6,0,0,0,3.3,1,12.3,12.3,0,0,0,2.6.2,9.1,9.1,0,0,0,2.3-.3l2.5-.7,3.1-1.5a25.5,25.5,0,0,0,3.7-2.2,39,39,0,0,0,4.2-3.2,55.7,55.7,0,0,0,4.5-4.1c1.5-1.5,3-3,4.5-4.7a159.4,159.4,0,0,0,17.2-24.2c2.6-4.6,5.2-9.3,7.5-14,1.2-2.4,2.3-4.8,3.4-7.2l1.5-3.5.6-1.7.3-.8v-.3h.1s0-.1-.1.1a45.2,45.2,0,0,1,82.2,37.4Z"/><rect class="cls-4" x="535.5" y="525.7" width="41.5" height="70.52" transform="translate(-136.8 940.2) rotate(-73.9)"/><rect class="cls-6" x="554.6" y="517.8" width="7.9" height="70.52" transform="translate(-127.5 936.7) rotate(-73.9)"/><rect class="cls-6" x="550" y="533.6" width="7.9" height="70.52" transform="translate(-146 943.7) rotate(-73.9)"/><path class="cls-18" d="M668.5,464.3a5.7,5.7,0,0,1-5,6.2l-74.6,8.1a5.6,5.6,0,0,1-6.2-5L577.8,429a5.6,5.6,0,0,1,5-6.2l74.6-8.1a5.6,5.6,0,0,1,6.2,5Z"/><rect class="cls-19" x="580" y="418.6" width="86.3" height="56.1" rx="5.6" transform="translate(-44.6 69.9) rotate(-6.2)"/><path class="cls-20" d="M643,453.5a1.4,1.4,0,0,0-1.3,1.5,1.4,1.4,0,0,0,1.5,1.2,1.5,1.5,0,0,0,1.3-1.5A1.3,1.3,0,0,0,643,453.5Zm4.3-.5a1.4,1.4,0,0,0,.3,2.7,1.4,1.4,0,1,0-.3-2.7Zm4.4-.5a1.3,1.3,0,0,0-1.2,1.5,1.3,1.3,0,0,0,1.5,1.2,1.4,1.4,0,0,0,1.2-1.5A1.4,1.4,0,0,0,651.7,452.5Zm5.9.8a1.5,1.5,0,0,0-1.5-1.3,1.3,1.3,0,0,0-1.2,1.5,1.3,1.3,0,0,0,1.5,1.2A1.3,1.3,0,0,0,657.6,453.3ZM620.2,456a1.2,1.2,0,0,0-1.2,1.5,1.4,1.4,0,0,0,1.5,1.2,1.4,1.4,0,0,0,1.2-1.5A1.3,1.3,0,0,0,620.2,456Zm4.4-.5a1.4,1.4,0,0,0,.3,2.7,1.3,1.3,0,0,0,1.1-1.5A1.2,1.2,0,0,0,624.6,455.5Zm4.3-.5a1.5,1.5,0,0,0-1.2,1.5,1.4,1.4,0,0,0,1.5,1.2,1.3,1.3,0,0,0,1.2-1.5A1.4,1.4,0,0,0,628.9,455Zm4.4-.5a1.4,1.4,0,0,0-1.2,1.5,1.3,1.3,0,0,0,1.5,1.2,1.4,1.4,0,1,0-.3-2.7Zm-35.9,3.9a1.5,1.5,0,0,0-1.2,1.5,1.3,1.3,0,0,0,1.5,1.2,1.2,1.2,0,0,0,1.2-1.5A1.4,1.4,0,0,0,597.4,458.4Zm4.4-.4a1.3,1.3,0,0,0-1.2,1.5,1.5,1.5,0,0,0,1.5,1.2,1.4,1.4,0,0,0,1.2-1.5A1.3,1.3,0,0,0,601.8,458Zm4.4-.5A1.3,1.3,0,0,0,605,459a1.4,1.4,0,0,0,1.5,1.2,1.5,1.5,0,0,0,1.2-1.5A1.3,1.3,0,0,0,606.2,457.5Zm4.4-.5a1.3,1.3,0,0,0-1.2,1.5,1.3,1.3,0,0,0,1.4,1.2,1.3,1.3,0,0,0,1.2-1.5A1.3,1.3,0,0,0,610.6,457Z"/><path class="cls-5" d="M584.8,445.4h4.3a0,0,0,0,1,0,0v33.5a0,0,0,0,1,0,0h-2.4a5.2,5.2,0,0,1-5.2-5.2V448.7A3.4,3.4,0,0,1,584.8,445.4Z" transform="translate(-46.5 65.9) rotate(-6.2)"/><rect class="cls-5" x="593.7" y="432.8" width="14.2" height="10.78" rx="1.3" transform="translate(-43.8 67.5) rotate(-6.2)"/><polygon class="cls-17" points="811.9 564.5 697.7 564.5 686.8 577.7 819.2 577.7 811.9 564.5"/><path class="cls-4" d="M790.5,900.8l-4-317,31-12.3c14.3,13.8,37.8,38.6,42.1,89.4,2.5,30.6,0,79.4-.4,149.5l.2,50.8A141,141,0,0,1,790.5,900.8Z"/><polygon class="cls-6" points="786.7 589.3 821.5 575.4 827.4 581.7 786.7 597.3 786.7 589.3"/><path class="cls-4" d="M686.6,570.7c-7.4,6.3-25.2,12.9-33.2,20.1,0,0-6.6,49.7-6.6,51.6-1.7,66.6,3.4,134.6-7,268.7l86.5,1.5,12.1-329.4Z"/><polygon class="cls-6" points="675.4 577.7 682.4 573.6 738.2 589.3 737.9 596.9 675.4 577.7"/><path class="cls-21" d="M551.8,442.8c5.3-12.4,2.9,17.5,2.9,17.5S532,489.3,551.8,442.8Z"/><path class="cls-7" d="M40.3,385.4c-1.5-5.5-3-11.1-5-16.5a160.3,160.3,0,0,0-6.4-16.2c-2.3-5.4-5-10.7-7.6-16.5a78.1,78.1,0,0,1-3.5-9.3,42.6,42.6,0,0,1-1.4-10.8,5.9,5.9,0,0,1,11.7-.6v.4a26.4,26.4,0,0,0,1.7,7,70.2,70.2,0,0,0,3.6,7.3c2.8,4.9,6.2,10.1,9.2,15.4s6.1,11,8.7,16.7,5,11.5,7.3,17.4a9.6,9.6,0,1,1-18,6.9,1.9,1.9,0,0,1-.3-1Z"/><path class="cls-7" d="M48.5,381.1c-.9-5.1-1.9-10.3-3.1-15.3s-2.5-9.9-4.1-14.5A80.4,80.4,0,0,0,35.1,338c-2.7-4.3-5.7-8.8-8.6-13.5a5.9,5.9,0,0,1,9.6-6.7c3.2,4.1,6.7,8,10.2,12.5a80.6,80.6,0,0,1,9.2,14.9A123.9,123.9,0,0,1,62,360.9c2,5.2,3.6,10.4,5.2,15.7a9.5,9.5,0,0,1-6.3,12,9.6,9.6,0,0,1-12.1-6.3l-.3-1.1Z"/><path class="cls-7" d="M29.7,388.7c-1.3-4.5-2.8-9-4.5-13.4s-3.6-8.8-5.7-13.2-4.4-8.8-6.6-13.7a55.2,55.2,0,0,1-4.7-16.3,5.9,5.9,0,0,1,5.2-6.5,6,6,0,0,1,6.4,4.5v.2a41,41,0,0,0,5.3,11.8c2.4,4,5.2,8.2,8,12.5s5.4,8.8,7.9,13.4,4.7,9.4,6.8,14.3A9.6,9.6,0,1,1,30.2,390a4.9,4.9,0,0,1-.4-1.1Z"/><path class="cls-7" d="M20.7,409.1c-3.8-8.8-7.7-17.6-11.2-26.9A109.5,109.5,0,0,1,5,367.5a51.4,51.4,0,0,1-1.2-8,47.2,47.2,0,0,1,.2-8.4,5.9,5.9,0,0,1,6.6-5.1,5.8,5.8,0,0,1,5.1,5.7v.4a39.8,39.8,0,0,0,.7,5.8,32.8,32.8,0,0,0,1.7,5.9,93.4,93.4,0,0,0,5.6,12.1c4.3,8.1,9.2,16.2,14.1,24.4h0a9.7,9.7,0,0,1-16.6,9.9A3.7,3.7,0,0,1,20.7,409.1Z"/><path class="cls-22" d="M18.8,327.6c9,16.6,19.2,37.7,19.2,37.7l-8.1,4.2"/><path class="cls-7" d="M64.7,447.3c5.8-9.6,15.5-50.5,7.7-66.5-18.7-37.6-67.5-24.7-56.5,22.9,2.8,12.1.2,22.9,16.1,38Z"/><path class="cls-4" d="M74.1,408.1a6.4,6.4,0,0,1-2-.3L18.2,395.2a8.3,8.3,0,0,1-5.5-4,9,9,0,0,1-1.2-6.8l27.9-119a9.1,9.1,0,0,1,8.8-6.9l2,.2L104,271.4a8.3,8.3,0,0,1,5.6,4,8.5,8.5,0,0,1,1.1,6.8L82.9,401.1A9.1,9.1,0,0,1,74.1,408.1Z"/><path class="cls-4" d="M48.2,259l1.9.2,53.8,12.6a8.6,8.6,0,0,1,6.4,10.2L82.4,401a8.5,8.5,0,0,1-8.3,6.6l-1.9-.2L18.4,394.8A8.6,8.6,0,0,1,12,384.5L39.9,265.6a8.4,8.4,0,0,1,8.3-6.6m0-1h0a9.4,9.4,0,0,0-9.3,7.3l-27.8,119a9.6,9.6,0,0,0,1.1,7.2,10,10,0,0,0,5.9,4.2l53.8,12.6,2.2.3a9.4,9.4,0,0,0,9.2-7.4l27.9-118.9a9.2,9.2,0,0,0-1.2-7.2,9.5,9.5,0,0,0-5.9-4.2L50.3,258.3a7.6,7.6,0,0,0-2.1-.3Z"/><path class="cls-5" d="M73.8,405.4l-56-13.1a5.2,5.2,0,0,1-3.9-6.3L41.7,267a6.5,6.5,0,0,1,7.8-4.9l6.6,1.6a2.7,2.7,0,0,1,2,3.2h0a4.5,4.5,0,0,0,3.3,5.4l26.1,6.1a4.4,4.4,0,0,0,5.4-3.4H93a2.5,2.5,0,0,1,3.2-2l6.9,1.6a6.4,6.4,0,0,1,4.9,7.7L80.1,401.5A5.2,5.2,0,0,1,73.8,405.4Z"/><path class="cls-23" d="M73.8,405.4l-56-13.1a5.2,5.2,0,0,1-3.9-6.3L41.7,267a6.5,6.5,0,0,1,7.8-4.9l6.6,1.6a2.7,2.7,0,0,1,2,3.2h0a4.5,4.5,0,0,0,3.3,5.4l26.1,6.1a4.4,4.4,0,0,0,5.4-3.4H93a2.5,2.5,0,0,1,3.2-2l6.9,1.6a6.4,6.4,0,0,1,4.9,7.7L80.1,401.5A5.2,5.2,0,0,1,73.8,405.4Z"/><circle class="cls-24" cx="76.2" cy="268.9" r="1.3"/><circle class="cls-24" cx="64.5" cy="268.8" r="1.3"/><line class="cls-25" x1="71.3" y1="270.9" x2="79.7" y2="272.8"/><path class="cls-4" d="M104,313.1h-.6l2.3-9.6h.6a.6.6,0,0,1,.4.8l-1.9,8.4A.6.6,0,0,1,104,313.1Z"/><path class="cls-4" d="M33.5,286.4h0l.6.2-2.3,9.6h-.6a.8.8,0,0,1-.5-.8l2-8.4A.8.8,0,0,1,33.5,286.4Z"/><path class="cls-4" d="M36.6,273.2h.6l-1.1,4.8-.6-.2h0c-.4-.1-.6-.4-.5-.7l.8-3.6A.6.6,0,0,1,36.6,273.2Z"/><path class="cls-4" d="M30.6,298.5h.7L29,308.3l-.6-.2h0c-.4-.1-.6-.4-.5-.7l2-8.5A.6.6,0,0,1,30.6,298.5Z"/><line class="cls-26" x1="35.4" y1="392.6" x2="57.9" y2="397.8"/><path id="Fill-1" class="cls-20" d="M78.7,312.1a.6.6,0,0,1-.6-.3.7.7,0,0,1-.2-.6.8.8,0,0,1,.5-.5c.2-.1.5,0,1.1.1H80l-.2.6a.6.6,0,0,1-.3.6Zm.9-4.5a2.1,2.1,0,0,0-1.6.1l-.2.9a3.2,3.2,0,0,1,1.4,0,1.9,1.9,0,0,1,.9.4.9.9,0,0,1,.1.9v.2l-.5-.2c-2-.4-2.8.1-3,1.1s.4,1.8,1.7,2.1h.2a1.9,1.9,0,0,0,2.4-1.5l.3-1.2a2.1,2.1,0,0,0-1.7-2.9Zm-22-5.1a2.2,2.2,0,0,0-2.9,1.7l-.7,3.1,1.2.3.7-3.1a1.2,1.2,0,0,1,.5-.8.8.8,0,0,1,.8-.2h0a1.6,1.6,0,0,1,.8.5,2,2,0,0,1,0,1.1l-.7,3,1.3.3.7-3.1a2.2,2.2,0,0,0-1.7-2.8Zm6.9,4.2h.1v-.2a1.3,1.3,0,0,1,1.5-.9l.7.4a.8.8,0,0,1,.1.7.4.4,0,0,1-.4.4,3.7,3.7,0,0,1-1.3-.2Zm1.9-2.2a2.8,2.8,0,0,0-1.3,5.5h0a2.4,2.4,0,0,0,1.7,0l.2-.9H65.6a1.6,1.6,0,0,1-1.3-1.5h.1l.9.2a4.8,4.8,0,0,0,1.9.2,1,1,0,0,0,.8-.9,2.1,2.1,0,0,0-1.6-2.5ZM85,308.9a2.2,2.2,0,0,0-2.9,1.7l-.7,3.1,1.2.3.7-3.1a1.2,1.2,0,0,1,.5-.8.8.8,0,0,1,.8-.2h0a1.6,1.6,0,0,1,.8.5,2,2,0,0,1,0,1.1l-.7,3,1.2.3.8-3.1a2.2,2.2,0,0,0-1.7-2.8Zm-14-3.3a1.9,1.9,0,0,0-2.4,1.6l-.7,3.3,1.2.3.7-3.1a1.2,1.2,0,0,1,.5-.8,1.1,1.1,0,0,1,.8-.2h0l.3.2.2-1-.6-.3Zm-19.2,1.2,1.2.3,1.6-6.8-1.2-.2Zm10.5-4.7-1.2-.3-1.2,4.9a1.9,1.9,0,0,0,1.5,2.4,1.2,1.2,0,0,0,1.2-.2v-.8h-.9c-.2-.1-.5-.2-.6-.4a1.4,1.4,0,0,1,0-.9l.5-2.2,1.1.2c.5.1.8-.2.8-.4v-.5l-1.7-.4Zm11.4,8.8a1.5,1.5,0,0,1-.9-.6,3.8,3.8,0,0,1,0-1.5,1.5,1.5,0,0,1,1.6-1.3h0a1,1,0,0,1,.8.6,1.9,1.9,0,0,1,0,1.5c-.2.9-.8,1.5-1.5,1.3Zm0-6.1-1.2-.3-1,4.2a2.4,2.4,0,0,0,1.8,3.2,2.6,2.6,0,0,0,3.2-2.2c.4-1.6-.3-2.9-1.6-3.2a1.8,1.8,0,0,0-1.6.5h-.1Z"/><path id="Fill-3" class="cls-20" d="M89.7,308.5l-1.3-.2-1.5,6.6,1.2.3.6-2.7v.2a21,21,0,0,0,1.3,2.6,1.6,1.6,0,0,0,.8.6h0a.8.8,0,0,0,.7-.1l-1.5-3.1h0l2.6-1.9-.6-.2a1.4,1.4,0,0,0-1.1.1,16.6,16.6,0,0,0-2.1,1.6h-.1Z"/><path id="Fill-5" class="cls-27" d="M47.2,304.3l-5.3-.2,1.2-5.2,5.3.2ZM42.8,296a1.3,1.3,0,0,0-1.6,1l-2,8.3,8.3,1.9a1.3,1.3,0,0,0,1.6-1l1.9-8.3Z"/><path id="Cobrosimple" class="cls-5" d="M52.9,313.9a2.2,2.2,0,0,0,1.4-.1v-.7a2.2,2.2,0,0,1-1.4.1,1.8,1.8,0,0,1-1.3-2.1,1.8,1.8,0,0,1,2.1-1.3,1.9,1.9,0,0,1,1.2.7v-.8a2.4,2.4,0,0,0-1.1-.6,2.5,2.5,0,1,0-1.1,4.8Zm3.6.8a1.7,1.7,0,1,0,.8-3.3,1.6,1.6,0,0,0-2.1,1.2A1.7,1.7,0,0,0,56.5,314.7Zm.2-.6a1.1,1.1,0,1,1,.5-2.1,1.1,1.1,0,0,1,.8,1.3A1,1,0,0,1,56.7,314.1Zm4.2,1.7a1.6,1.6,0,0,0,2-1.4,1.6,1.6,0,0,0-1.2-2,1.5,1.5,0,0,0-1.2.2l.4-1.8h-.7l-1.1,4.6h.7V315A2.1,2.1,0,0,0,60.9,315.8Zm0-.7a1.1,1.1,0,0,1-.8-.8l.2-1a1.1,1.1,0,0,1,1.9,1A1.1,1.1,0,0,1,60.9,315.1Zm3.1,1.3.5-2a1.3,1.3,0,0,1,1.2-.4c0,.1.1.1.2.1v-.7h0a1.7,1.7,0,0,0-1.4.3l.2-.5L64,313l-.7,3.2Zm3.4.9a1.9,1.9,0,0,0,2.2-1.3,1.8,1.8,0,0,0-1.4-2.1,1.9,1.9,0,0,0-2.2,1.3A1.8,1.8,0,0,0,67.4,317.3Zm.2-.6a1.2,1.2,0,0,1-.9-1.4,1.2,1.2,0,0,1,1.4-.8,1.1,1.1,0,0,1,.8,1.3A1.2,1.2,0,0,1,67.6,316.7Zm5.2,1.8c.8.2,1.5,0,1.6-.6s-.2-1-.8-1.3-.9-.3-.8-.6.3-.3.7-.2a2.3,2.3,0,0,1,1.1.6l.2-.7a3.3,3.3,0,0,0-1.2-.5c-.8-.2-1.4,0-1.5.6s.2.9.8,1.3.9.3.8.6-.3.3-.8.2a2.2,2.2,0,0,1-1.2-.7l-.2.7A3.2,3.2,0,0,0,72.8,318.5Zm3.5-3.2a.5.5,0,0,0,.6-.4c0-.2-.1-.5-.4-.5a.4.4,0,0,0-.5.3A.5.5,0,0,0,76.3,315.3Zm-.5,3.9.7-3.3h-.7l-.7,3.2Zm1.8.4.5-2.2a1,1,0,0,1,.9-.3c.3.1.6.3.5,1l-.4,1.8.7.2.4-2.1a1.3,1.3,0,0,1,1-.4c.3.1.6.3.5,1l-.5,1.8.7.2.5-2c.2-.9-.1-1.4-.8-1.6a1.7,1.7,0,0,0-1.3.3,1.2,1.2,0,0,0-.9-.8,1.2,1.2,0,0,0-1.2.3v-.4l-.7-.2-.7,3.2Zm5.7,2.7.4-1.8a1.2,1.2,0,0,0,1,.8,1.7,1.7,0,0,0,2-1.3,1.8,1.8,0,0,0-1.2-2.1,1.8,1.8,0,0,0-1.3.3v-.4l-.7-.2-1,4.5Zm1.4-1.6a.9.9,0,0,1-.8-.8l.2-1a1,1,0,0,1,1.1-.4,1.1,1.1,0,0,1,.8,1.3A1.2,1.2,0,0,1,84.7,320.7Zm3.2,1.4h.5v-.6h-.2c-.2-.1-.4-.2-.3-.5l.9-3.6-.8-.2-.8,3.8A.8.8,0,0,0,87.9,322.1Zm2.7.6a2.8,2.8,0,0,0,1.3,0v-.6H90.9a1.2,1.2,0,0,1-1-1.1l2.4.5h.1a1.6,1.6,0,0,0-1.1-2.1,1.7,1.7,0,1,0-.7,3.4Zm1.2-1.9-1.8-.4a1.1,1.1,0,0,1,1.1-.5A.8.8,0,0,1,91.8,320.8Z"/><rect class="cls-5" x="29" y="325.3" width="56.9" height="47.64" transform="translate(81 -3.9) rotate(13.2)"/><rect class="cls-23" x="34.2" y="360.7" width="39.2" height="7.67" rx="2.9" transform="translate(84.4 -2.7) rotate(13.2)"/><rect class="cls-28" x="40.9" y="334.4" width="39.2" height="3.1" rx="1.2" transform="translate(78.1 -5) rotate(13.2)"/><rect class="cls-28" x="38" y="346.9" width="39.2" height="3.1" rx="1.2" transform="translate(80.8 -4) rotate(13.2)"/><path class="cls-7" d="M49.5,418.3a74.8,74.8,0,0,1,8.4-7.5l7.4-5.6,6.5-5.1a44.1,44.1,0,0,0,4.8-4.5l.4-.4V395c.1,0,.1,0,.2-.2l1.1-1.9,2.1-3.8c1.4-2.5,2.7-5.1,4.1-7.8s2.7-5.6,4.2-8.4,3.2-5.5,4.9-8.2a6.3,6.3,0,0,1,11.1,6h-.1a55.2,55.2,0,0,0-2.9,7.7c-.4,1.3-.8,2.6-1.1,4l-1,4.2-1.9,8.8-1,4.5-.6,2.3-.2.8-.3.8-.6,1.6a62.1,62.1,0,0,1-5.6,9.8c-1.9,2.9-3.7,5.4-5.5,7.9s-3.4,5-4.9,7.2a22.1,22.1,0,0,0-2.9,6.2,17.2,17.2,0,1,1-33.8-6.9,16.1,16.1,0,0,1,4.2-8.2Z"/><path class="cls-29" d="M99.5,370.4a5.2,5.2,0,0,0,3.7,6.4c1-3.1,3.6-7.9,2.5-10.1A5.1,5.1,0,0,0,99.5,370.4Z"/><path class="cls-6" d="M216.9,159.3c-10.8-53.6,16.9-104.6,74.9-116.9s114.3,21.3,125.7,75.2c.8,3.7,7.5,50.9,7.2,54.8-6.3,61.8-80.2,118.8-80.2,118.8S279.6,278.6,236.9,221Z"/><path class="cls-10" d="M228.7,184.6c-10-49.3,11.8-95.5,61.1-105.9,65.3-13.9,107.9,19,118.4,68.6.7,3.4,1.6,62.9,1.5,66.4-1.9,54.5-10.8,87.6-60.4,98.1-46.9,9.9-85.1-10.5-99.7-64.2Z"/><path class="cls-10" d="M305.5,378.3c10.4-37.1-25.3-71.6-42.5-99.5l76.3-16.2,67.6-14.3c-4.8,26.3-10.3,87.8,7.9,119.6,11.3,19.6,44.5,58,44.5,58l-93.1,8.9-93.3,9S299.5,400.1,305.5,378.3Z"/><path class="cls-6" d="M345.9,87.1c11.1,62.9,33.2,40.3,47.3,83.7l25.7-13.2L393.5,93.3,352.6,61.8Z"/><path class="cls-10" d="M262.8,207.2a17.6,17.6,0,0,0-21-13.9,18.4,18.4,0,0,0-14.4,21.4c2,9.5,12.5,15.4,20.2,14.1l17.7-4.1S263.1,208.6,262.8,207.2Z"/><path class="cls-6" d="M232.6,126.5c-8.4,20.9-.4,47.8,8.7,90.3h0a30.6,30.6,0,0,1-9.6-15.7C226.1,178.3,211,122.1,232.6,126.5Z"/><path class="cls-6" d="M373.9,129.8,386.6,197s10.2-1.6,9.3-20.8-5.7-44.4-5.7-44.4Z"/><path class="cls-30" d="M247.4,152.4a28.9,28.9,0,0,1,12.4-6.1c3.6-.8,9.2-1.1,13.6.9,13.4,6.2,19.2,28.2,16.5,46.1-.9,5.9-4.3,10.8-3.1,17.9s5.5,11.6,16.2,9.3c8.6-1.8,12.5-8.6,11.4-14.1"/><path class="cls-31" d="M247.4,152.4a28.9,28.9,0,0,1,12.4-6.1c3.6-.8,9.2-1.1,13.6.9"/><path class="cls-31" d="M309.5,139.2a29.3,29.3,0,0,1,12.5-6.1c3.5-.8,9.2-1.1,13.6.9"/><rect class="cls-9" x="262.4" y="175.3" width="12.8" height="18" rx="4.9" transform="translate(570 308.9) rotate(168)"/><rect class="cls-9" x="323.5" y="162.4" width="12.8" height="18" rx="4.9" transform="translate(688.2 270.7) rotate(168)"/><path class="cls-9" d="M346.7,91.1c-48.1-10.7-60-18.3-108.5,21.3-19.4,15.8-79.8-22.6-27.1-78.2-1,9.4-4.6,30.5,43.6,3.3S369.6,35.4,346.7,91.1Z"/><path class="cls-3" d="M366.3,1024l-80.6-1.5c-39.7-.7-92.7-29.6-94.4-69.3-.5-23.8,8.4-48.7,8.3-70.5l270.4,5c-1.1,21.8-2.4,43.8-4.1,67.8C462.8,995.1,406,1024.7,366.3,1024Z"/><line class="cls-32" x1="360.2" y1="886.4" x2="418.2" y2="958.7"/><path class="cls-4" d="M161.6,544.4c-12.4,8.2-23.1,13.3-30.2,13.6-2.5.1-19.5,2-31.8-8.9h0a57.6,57.6,0,0,1-6.8-7.8c-6-7.9-10.8-17.9-14.1-29.1l-.9-3.4a160.1,160.1,0,0,1-4.9-32.4,213.1,213.1,0,0,1,.8-30.8L32.9,442c-2.9,10.4-5.6,62.7-4.1,78.9.1.6.1,1.1.2,1.6a155.7,155.7,0,0,0,3.9,23,148.5,148.5,0,0,0,6.9,20.4c.6,1.4,1.2,2.8,1.9,4.2a125.3,125.3,0,0,0,14.2,23.3,118.1,118.1,0,0,0,37.8,32.5c26.3,14,54.1,13.1,82.3,6.7,16.1-3.7,33.7-12.7,48.3-22.5l2-1Z"/><path class="cls-33" d="M283.9,532.4c-3.5-14.1-24.2-94.6-29.9-86.4-23.4,34-63,76.8-95.2,97.7l54.3,83.5c5.8-2.1,21.6-18,27.9-20.9,3.5-1.5,7.2-3.3,10.8-5l9.6-4.6C285.9,585,290.2,558.2,283.9,532.4Z"/><path class="cls-3" d="M301.9,392.7c22.4,24.3,66.5,15.2,114.9-9.2a11.8,11.8,0,0,1,15.9,5.3c12.8,25.2,36.3,82.9,41,90.7,0,0,15.5,57.3,15.8,59.8C504.1,665.2,470,887.7,470,887.7l-270.4-5c17-163.2,19.6-317.7,38.8-412.8,11.3-16.7,38.7-51.1,53.6-76.1A6.2,6.2,0,0,1,301.9,392.7Z"/><g class="cls-34"><path class="cls-33" d="M431.7,385.6l-93.1,45.6-5,476.2H514.9l-4.2-351c3.8-63.8-24-125.7-75.6-168.1Z"/><path class="cls-35" d="M266.2,812.5s82.1-24,105.4,14.2,40.7,35.3,73.7,34.8,78.6,38,76,59.4"/><path class="cls-35" d="M235.9,849.1S318,825,341.3,863.3s40.8,37.2,73.6,34.8,51.9,32.8,48.7,59.3"/></g><g class="cls-36"><polygon class="cls-33" points="296.1 392.1 310.4 429 309.9 905.6 160.3 905.6 160.3 527.9 176.7 433.3 296.1 392.1"/><path class="cls-35" d="M374.4,811.1s-78.7-23.9-101,14.1-39.1,37.1-70.6,34.7-49.7,32.7-46.6,59"/><path class="cls-35" d="M403.5,847.5s-78.7-24-101,14.1-39.1,37.1-70.6,34.7-49.7,32.6-46.7,59"/></g><path class="cls-37" d="M350.8,221s-8.7,20.7-52.9,29.8"/><path class="cls-4" d="M445.8,613.3a612,612,0,0,1-55.7,57.3l-3.8,3.4-4,3.3-8,6.6-8.4,6.4-2.1,1.6-2.2,1.6-4.5,3a193.8,193.8,0,0,1-39.6,21.3l-5.6,2.1-5.8,1.8-5.9,1.6-6.2,1.2-3,.6-3.2.4-6.3.7-6.5.3h-3.2a17.1,17.1,0,0,1-3.2-.1l-6.5-.4-6.4-1-3.1-.5-3.1-.7-6.2-1.6a114.3,114.3,0,0,1-11.6-4.2l-2.8-1.2-2.7-1.3-5.2-2.7a145.3,145.3,0,0,1-18.8-12.3c-5.8-4.4-11-9-16.1-13.7-9.9-9.3-18.6-18.9-27-28.3a21.7,21.7,0,0,1,30.1-31.1h.1c9.3,7.8,18.5,15.3,27.7,21.7a139.7,139.7,0,0,0,13.7,8.6l3.4,1.9,3.4,1.6c1.1.6,2.2.9,3.3,1.4l1.6.7.9.3.8.3,3.2,1.1,1.6.4,1.6.4a43.8,43.8,0,0,0,6.1,1.2l2.9.3h3a26.2,26.2,0,0,0,2.8,0l2.8-.3a7.7,7.7,0,0,0,1.5-.2l1.4-.3,2.8-.5,2.8-.8,1.4-.4,1.4-.6,2.9-1.1c.9-.3,1.9-.9,2.9-1.3l2.9-1.4,2.9-1.7c7.8-4.4,15.7-10.6,23.3-17.6l2.9-2.7,1.4-1.3,1.4-1.5,5.7-5.7,5.5-6.1,2.7-3.1,2.7-3.2c14.4-17.1,27.7-36.1,40.4-55.9a43.1,43.1,0,1,1,69.1,51.2Z"/><path class="cls-33" d="M472.5,452c25.8,15.9,26.5,62,17,90.7-10.5,31.7-19.2,60.2-41.2,90.3l-86-59.1A496.5,496.5,0,0,0,387.5,531C401.5,504,426.5,423.6,472.5,452Z"/><path class="cls-38" d="M489.5,542.7c-10.5,31.7-19.2,60.2-41.2,90.3l-86-59.1A496.5,496.5,0,0,0,387.5,531"/><rect class="cls-39" x="404.1" y="125.1" width="13.2" height="72.47" transform="translate(155.2 521.1) rotate(-76.1)"/><rect class="cls-6" x="364.1" y="146.4" width="13.2" height="10.05" transform="translate(134.4 474.7) rotate(-76.1)"/><rect class="cls-40" x="433.3" y="166" width="13.2" height="5.2" transform="translate(170.3 554.9) rotate(-76.1)"/><rect class="cls-40" x="376.5" y="152" width="13.2" height="5.03" transform="translate(140.9 489.1) rotate(-76.1)"/><rect class="cls-6" x="358.9" y="147.3" width="9.2" height="4.68" transform="translate(130.7 466.4) rotate(-76.1)"/><path class="cls-33" d="M358.8,146.2h.3a1.6,1.6,0,0,1,1.6,1.6v3a0,0,0,0,1,0,0h-3.6a0,0,0,0,1,0,0v-3A1.6,1.6,0,0,1,358.8,146.2Z" transform="translate(128.4 461.1) rotate(-76.1)"/><path class="cls-10" d="M101.2,558.9s18.4-3.3,47.8,21.7a44.1,44.1,0,0,1,14,21c1.8,5.5,22.9,21.3,22.9,21.3l-30.7,33.4-13.9-19.1s-15,2.3-29.9-12.9C105.4,618.1,79.4,597.9,101.2,558.9Z"/><path class="cls-7" d="M109.8,587.3a95,95,0,0,0-9.8-11.6,38.8,38.8,0,0,0-5.1-4.3,18.2,18.2,0,0,0-4.2-2.3h-.8c-.1.1-.3-.1-.5,0a1.8,1.8,0,0,0-1,.1,6.5,6.5,0,0,0-1.5.9,10.6,10.6,0,0,0-1.6,1.9,23.3,23.3,0,0,0-3,5.9q-1.2,3.4-2.1,7.2h0a7.1,7.1,0,0,1-8.4,5.4,7,7,0,0,1-5.5-7.4,80.7,80.7,0,0,1,1.4-9.5,40.2,40.2,0,0,1,3.4-9.7,34,34,0,0,1,3.1-5,24.8,24.8,0,0,1,5-4.6,20.6,20.6,0,0,1,13.9-3.4,31.1,31.1,0,0,1,11.5,3.5,56.3,56.3,0,0,1,8.7,5.5,106.9,106.9,0,0,1,14,12.6h.1a11.7,11.7,0,0,1-.4,16.4,11.5,11.5,0,0,1-16.3-.4A4.8,4.8,0,0,1,109.8,587.3Z"/><path class="cls-7" d="M133,597.9l-3.3-4.9c-1.1-1.7-2.3-3.3-3.4-4.9l-3.5-4.8-3.5-4.6a121.4,121.4,0,0,0-15.2-16.6l-1-.9-1.1-.8-2.1-1.7c-.7-.6-1.5-1-2.2-1.5s-1.5-1.1-2.3-1.5a53,53,0,0,0-4.7-2.8l-2.5-1.2-2.6-1.2c-6.9-3.1-14.5-5.7-22.2-8.5h0a7,7,0,0,1,4.1-13.4c7.8,2,15.9,3.9,24.1,6.7l3.1,1.1,3.1,1.2c2.1.8,4.1,1.9,6.1,2.8l3,1.7a22.8,22.8,0,0,1,3,1.7l2.8,1.8,1.5.9,1.3,1A137.8,137.8,0,0,1,135,565.1l4.4,4.7,4.1,4.8,4.1,4.8,3.9,4.9a11.5,11.5,0,1,1-17.7,14.6l-.7-.8Z"/><path class="cls-7" d="M131.9,624.9c-4-5.1-8.2-10-12.5-14.7a109.1,109.1,0,0,0-13.1-12.5,42.8,42.8,0,0,0-6.7-4.2,14.5,14.5,0,0,0-5.9-1.6,8.2,8.2,0,0,0-2.6.4l-1.4.5-1.5.8a27.8,27.8,0,0,0-6,5.2h0a7.1,7.1,0,0,1-11-8.8,42.1,42.1,0,0,1,8.2-8.8,26.1,26.1,0,0,1,2.7-1.9,22.7,22.7,0,0,1,3.1-1.7,26.2,26.2,0,0,1,6.9-2,24.8,24.8,0,0,1,7.2,0l1.7.2,1.6.4c1.1.2,2.1.6,3.2.9a56.6,56.6,0,0,1,10.8,5.1,130.2,130.2,0,0,1,17.3,13c5.3,4.6,10.2,9.3,15.1,14.1a11.5,11.5,0,1,1-16.2,16.4Z"/><path class="cls-7" d="M119.4,625.1c-3.2-2.5-6.4-4.9-9.8-7.2a105.8,105.8,0,0,0-10-6,49,49,0,0,0-4.8-2.2l-.9-.3h-.8c-.4-.2-.5-.1.3-.5l.3-.2.5-.3.4-.3.4-.5.4-.5.3-.5c0-.2.1-.4.1-.6a.4.4,0,0,0,.1-.3,1.3,1.3,0,0,0,.1-.5.3.3,0,0,0-.1-.2c0,.1-.1,0-.1.3a13.9,13.9,0,0,0,1.2,4.4v.4a7,7,0,0,1-12.7,6,28.6,28.6,0,0,1-1.8-3.5l-.5-.9-.4-1.1a10.4,10.4,0,0,1-.4-1l-.3-1.2a21.1,21.1,0,0,1-.6-2.9v-1.8a21.1,21.1,0,0,1,.3-2.1l.3-1.1.6-1.3.6-1.2.9-1.1,1-1.1,1.1-.8,1.1-.7,1.1-.5,1.1-.4a3.2,3.2,0,0,1,.9-.3l.9-.2h6.3l2.2.3a56.4,56.4,0,0,1,7.6,1.8,120.7,120.7,0,0,1,13.2,5.1c4.3,1.9,8.4,4,12.4,6.2h.1a11.4,11.4,0,0,1,4.6,15.6,11.5,11.5,0,0,1-15.7,4.6Z"/><path class="cls-41" d="M104.6,592.4S91,579.8,79.5,598.2"/><path class="cls-41" d="M100,611.6s-.1,3.7,4.6,4.7"/><path class="cls-41" d="M106.3,576.7s-11.1-10.2-26.5,4.1"/><path class="cls-41" d="M84.7,550.1s11.3.3,19.2,7.4"/><line class="cls-38" x1="228.7" y1="534.5" x2="216.6" y2="627.2"/><path class="cls-10" d="M388.4,180.6A17.9,17.9,0,0,1,402,159.3c9.7-2,19.8,4.1,21.8,13.8s-5.1,19.1-12.7,21.1l-17.9,3.4S388.7,182,388.4,180.6Z"/><circle class="cls-11" cx="405.4" cy="177" r="5.7"/><polygon class="cls-42" points="55.5 229.4 63.3 240.5 71.2 228.8 63.3 217.8 55.5 229.4"/><polygon class="cls-42" points="47.7 147.5 55.5 158.6 63.3 146.9 55.5 135.9 47.7 147.5"/><polygon class="cls-42" points="19.1 176.5 26.9 187.5 34.8 175.9 26.9 164.8 19.1 176.5"/></g></svg>